<svg width="24" height="24" viewBox="0 0 24 24" fill="none" xmlns="http://www.w3.org/2000/svg">
<path fill-rule="evenodd" clip-rule="evenodd" d="M11.7811 19.1387C11.8478 19.1777 11.9231 19.1988 12 19.2C12.0769 19.1988 12.1522 19.1777 12.2189 19.1387C12.3019 19.1004 14.1736 18.0207 16.0755 16.29C18.6792 13.9084 20 11.5421 20 9.24479C20.0007 8.29429 19.7008 7.36863 19.1445 6.60389C18.5882 5.83914 17.8048 5.27565 16.9094 4.99624C16.014 4.71683 15.0539 4.73624 14.1702 5.05162C13.2865 5.367 12.5258 5.96171 12 6.74834C11.4742 5.96171 10.7135 5.367 9.82978 5.05162C8.94608 4.73624 7.98597 4.71683 7.09059 4.99624C6.19521 5.27565 5.41179 5.83914 4.85548 6.60389C4.29917 7.36863 3.99932 8.29429 4 9.24479C4 11.5421 5.32076 13.9084 7.92453 16.29C9.82642 18.0207 11.6981 19.1004 11.7811 19.1387ZM5.96989 6.79991C6.61265 6.15185 7.48442 5.78777 8.39341 5.78777C9.07049 5.78715 9.73257 5.98874 10.2961 6.3671C10.8597 6.74547 11.2995 7.28365 11.56 7.91374C11.5921 7.99703 11.6484 8.06861 11.7215 8.11907C11.7946 8.16954 11.8812 8.19655 11.9698 8.19655C12.0584 8.19655 12.145 8.16954 12.2181 8.11907C12.2912 8.06861 12.3475 7.99703 12.3796 7.91374C12.6832 7.17446 13.2319 6.56434 13.932 6.18748C14.6321 5.81063 15.4402 5.6904 16.2184 5.84733C16.9966 6.00425 17.6966 6.42859 18.1991 7.04794C18.7016 7.66729 18.9753 8.44326 18.9736 9.24341C18.9736 13.5479 13.1768 17.3041 11.9698 18.0328C10.7628 17.3041 4.96604 13.5479 4.96604 9.24341C4.96604 8.32692 5.32713 7.44796 5.96989 6.79991Z" fill="#606063"/>
</svg>
