<svg width="20" height="20" viewBox="0 0 20 20" fill="none" xmlns="http://www.w3.org/2000/svg">
<path d="M6.09695 15.8962C6.3308 16.0772 6.62739 16.015 6.98101 15.7605L9.99823 13.5611L13.0212 15.7605C13.3748 16.015 13.6657 16.0772 13.9052 15.8962C14.1391 15.7209 14.1904 15.4326 14.0478 15.0198L12.8557 11.503L15.9015 9.33182C16.2551 9.08304 16.3977 8.82295 16.3064 8.54024C16.2152 8.26885 15.9471 8.13315 15.5079 8.1388L11.7721 8.16142L10.637 4.62761C10.5001 4.2092 10.2948 4 9.99823 4C9.70735 4 9.50202 4.2092 9.36513 4.62761L8.23011 8.16142L4.49423 8.1388C4.05505 8.13315 3.78698 8.26885 3.69572 8.54024C3.59876 8.82295 3.74706 9.08304 4.10068 9.33182L7.14642 11.503L5.95436 15.0198C5.81177 15.4326 5.8631 15.7209 6.09695 15.8962Z" fill="#AC8E68"/>
</svg>
